<svg xmlns="http://www.w3.org/2000/svg" viewBox="0 0 512 512"><rect width="512" height="512" rx="112" fill="#252525"/><circle cx="256" cy="248" r="150" fill="#C96B3C"/><path d="M256 100c44 70 88 97 126 112-38 14-82 41-126 112-44-71-88-98-126-112 38-15 82-42 126-112z" fill="#F8F3EC"/><path d="M256 150c21 43 44 65 70 80-26 15-49 37-70 80-21-43-44-65-70-80 26-15 49-37 70-80z" fill="#4F6D4A"/><text x="256" y="420" font-size="44" text-anchor="middle" fill="#F8F3EC" font-family="Georgia">Fiesta</text></svg>
